<svg width="24" height="24" viewBox="0 0 24 24" fill="none" xmlns="http://www.w3.org/2000/svg">
<path fill-rule="evenodd" clip-rule="evenodd" d="M11.9992 5C9.5852 5 7.32345 5.39053 5.67424 5.77628C4.84704 5.96977 4.16759 6.16357 3.69235 6.30991C3.45459 6.38313 3.26755 6.44458 3.13826 6.48836C3.0736 6.51025 3.02335 6.52773 2.98838 6.54006L2.94749 6.5546L2.93584 6.5588L2.93224 6.56011L2.93101 6.56056L2.93054 6.56073C2.93034 6.5608 2.93015 6.56087 3.27372 7.5L2.93015 6.56087L2.35999 6.76945L2.282 7.37154L1.28554 15.0646C1.20698 15.6068 1.23661 16.1592 1.37277 16.69C1.5097 17.2237 1.7516 17.7248 2.08436 18.164C2.41711 18.6033 2.83405 18.9718 3.31081 19.248C3.78757 19.5243 4.3146 19.7028 4.86112 19.7731C5.40764 19.8435 5.9627 19.8042 6.49387 19.6576C7.02504 19.511 7.52168 19.26 7.95477 18.9194C8.38787 18.5787 8.74874 18.1551 9.01632 17.6734C9.17867 17.3812 9.3047 17.071 9.3922 16.75H14.6178C14.7096 17.0687 14.8396 17.3759 15.0053 17.6649C15.2762 18.1374 15.6375 18.5518 16.0686 18.8847C16.4997 19.2175 16.9922 19.4621 17.5178 19.6046C18.0435 19.7471 18.592 19.7847 19.1322 19.7152C19.6724 19.6457 20.1936 19.4705 20.666 19.1996C21.1385 18.9286 21.5529 18.5673 21.8858 18.1362C22.2186 17.7051 22.4632 17.2127 22.6057 16.687C22.7482 16.1614 22.7858 15.6128 22.7163 15.0726L22.7162 15.0717L21.7179 7.37144L21.6399 6.76935L21.0697 6.56083L20.7262 7.5C21.0697 6.56083 21.0695 6.56076 21.0693 6.56069L21.0688 6.56052L21.0676 6.56007L21.064 6.55876L21.0523 6.55456L21.0114 6.54002C20.9765 6.52769 20.9262 6.51021 20.8615 6.48832C20.7322 6.44455 20.5451 6.3831 20.3073 6.30989C19.8319 6.16355 19.1523 5.96975 18.3249 5.77627C16.6753 5.39052 14.4132 5 11.9992 5ZM3.26793 15.3295L4.18477 8.25119L4.28095 8.22134C4.71905 8.08643 5.35374 7.90523 6.12976 7.72372C7.68699 7.35947 9.78798 7 11.9992 7C14.2105 7 16.3118 7.35948 17.8695 7.72373C18.6457 7.90525 19.2806 8.08645 19.7188 8.22136L19.8152 8.25128L20.7326 15.3279L20.7328 15.3288C20.7686 15.6081 20.7491 15.8919 20.6754 16.1637C20.6016 16.4359 20.4749 16.6908 20.3026 16.914C20.1303 17.1372 19.9157 17.3243 19.6711 17.4646C19.4265 17.6048 19.1567 17.6956 18.877 17.7316C18.5973 17.7675 18.3133 17.7481 18.0411 17.6743C17.769 17.6005 17.514 17.4739 17.2908 17.3015C17.0676 17.1292 16.8805 16.9146 16.7403 16.67C16.6 16.4254 16.5093 16.1556 16.4733 15.8759L16.4731 15.8744L16.4401 15.6209L16.3267 14.75H15.4485H8.55222H7.67362L7.56054 15.6213L7.52754 15.8755L7.5263 15.8851L7.52524 15.8947C7.49397 16.1783 7.40651 16.4528 7.26795 16.7022C7.1294 16.9517 6.94253 17.171 6.71827 17.3474C6.49401 17.5238 6.23684 17.6537 5.9618 17.7297C5.68676 17.8056 5.39934 17.8259 5.11635 17.7895C4.83335 17.7531 4.56045 17.6606 4.31358 17.5176C4.0667 17.3745 3.85081 17.1837 3.67851 16.9563C3.5062 16.7289 3.38094 16.4694 3.31004 16.193C3.23914 15.9166 3.22402 15.6289 3.26556 15.3466L3.26682 15.338L3.26793 15.3295ZM8.49997 13.5V12.25H9.74997V10.25H8.49997V9H6.49997V10.25H5.24997V12.25H6.49997V13.5H8.49997ZM16.5 10.5C16.9142 10.5 17.25 10.1642 17.25 9.75C17.25 9.33579 16.9142 9 16.5 9C16.0858 9 15.75 9.33579 15.75 9.75C15.75 10.1642 16.0858 10.5 16.5 10.5ZM16.5 13.5C16.9142 13.5 17.25 13.1642 17.25 12.75C17.25 12.3358 16.9142 12 16.5 12C16.0858 12 15.75 12.3358 15.75 12.75C15.75 13.1642 16.0858 13.5 16.5 13.5ZM18.75 11.25C18.75 11.6642 18.4142 12 18 12C17.5858 12 17.25 11.6642 17.25 11.25C17.25 10.8358 17.5858 10.5 18 10.5C18.4142 10.5 18.75 10.8358 18.75 11.25ZM15 12C15.4142 12 15.75 11.6642 15.75 11.25C15.75 10.8358 15.4142 10.5 15 10.5C14.5858 10.5 14.25 10.8358 14.25 11.25C14.25 11.6642 14.5858 12 15 12Z" fill="url(#paint0_linear_10424_19)"/>
<defs>
<linearGradient id="paint0_linear_10424_19" x1="1" y1="20" x2="23" y2="20" gradientUnits="userSpaceOnUse">
<stop stop-color="#9ED4DC"/>
<stop offset="1" stop-color="#C9A6F5"/>
</linearGradient>
</defs>
</svg>
