<svg xmlns:rdf="http://www.w3.org/1999/02/22-rdf-syntax-ns#" xmlns="http://www.w3.org/2000/svg" xml:space="preserve" height="199.79" viewBox="0 0 200.82532 199.79101" width="200.83" version="1.1" xmlns:cc="http://creativecommons.org/ns#" xmlns:dc="http://purl.org/dc/elements/1.1/"><g transform="matrix(1.25 0 0 -1.25 -129.75 502.29)"><g transform="translate(.87182 .87182)"><path d="m25.426 30.617v108.56c0 15.948 10.204 31.112 29.508 43.85 13.966 9.2162 27.768 13.993 28.35 14.191l1.6836 0.57618 1.6836-0.57618c0.58125-0.19875 14.391-4.9805 28.365-14.262 19.294-12.818 29.49-28.124 29.49-44.262v-108.07h-119.08zm2.3105 2.3105h114.46v105.76c0 15.329-9.8402 29.969-28.459 42.338-13.739 9.1262-27.266 13.806-27.836 14l-0.93359 0.32031-0.93359-0.32031c-0.57-0.19375-14.093-4.8711-27.828-13.934-18.624-12.29-28.469-26.787-28.469-41.922v-106.25zm2.3105 2.3105v103.94c0 14.321 9.4854 28.151 27.432 39.992 13.481 8.895 26.745 13.485 27.303 13.678l0.18555 0.0625 0.18555-0.0625c0.5575-0.1925 13.822-4.7852 27.305-13.74 17.944-11.92 27.43-25.896 27.43-40.412v-103.45h-109.84z" transform="matrix(.8 0 0 -.8 103.8 400.23)" fill="#fff"/><path d="m37.453 42.469v0.28906l26.131 21.441-12.158-21.73h-13.973zm16.758 0 12.656 19.764-3.9238-19.764h-8.7324zm11.449 0 4.9355 18.908 2.2461-18.908h-7.1816zm9.8789 0-1.1309 19.246 8.8809-19.246h-7.75zm10.506 0-8.1172 20.744 19.193-20.744h-11.076zm13.85 0-19.082 23.258 41.568-23.258h-22.486zm24.332 0-41.449 26.541 49.703-9.8652v-16.676h-8.2539zm-86.773 2.7637v12.609l23.619 9.2402-23.619-21.85zm95.027 14.754-48.848 12.754 48.848 5.7988v-18.553zm-95.027 0.41016v8.9062l22.119 1.3008-22.119-10.207zm0 11.43v8.2754l21.783-5.6875-21.783-2.5879zm45.842 4.7227 49.186 22.699v-19.805l-49.186-2.8945zm-23.205 1.5957-22.639 4.4922v10.002l22.639-14.494zm21.707 1.924 47.263 43.72-49.777-40.835 31.437 56.185-34.718-54.218 12.535 63.148-16.264-62.293-7.595 63.933 3.785-64.272-26.981 58.462 23.457-59.961-27.486 29.711v23.383c0 31.595 47.514 48.027 47.514 48.027s47.514-16.431 47.514-48.469v-36.697l-50.684-19.828zm-19.74 1.3555-24.605 13.768v16.223l24.605-29.99z" transform="matrix(.8 0 0 -.8 103.8 400.23)" fill="#f60"/><path d="m130.61 369.27v-80.376c0-23.754 35.515-37.937 41.163-40.04 5.639 2.107 41.163 16.346 41.163 40.426v79.99h-82.326zm41.164-125.32-0.748 0.257c-0.456 0.155-11.274 3.897-22.262 11.147-14.9 9.832-22.775 21.429-22.775 33.537v84.997h91.568v-84.611c0-12.263-7.873-23.975-22.768-33.87-10.991-7.301-21.813-11.045-22.268-11.2l-0.747-0.257z" fill="#036"/><path d="m228.62 380.2c-1.855-0.319-4.561-5.263-5.914-9.67l-0.059-0.165c-0.327-0.782-0.683-1.569-1.057-2.34-1.322-2.697-2.741-4.814-4.187-6.47 0.198 0.064 0.396 0.131 0.594 0.2 10.487 3.654 12.082 10.738 12.322 12.822 0.412 3.779-1.096 5.209-1.699 5.623m6.373-49.423-0.097-0.241c0.062 0.054 0.106 0.105 0.124 0.147h-0.001c-0.001 0-0.004 0.031-0.026 0.094m-100.72-42.894c-0.008-8.631 0.033-23.223 1.879-28.781 7.747 0.103 19.779 4.374 28.595 7.502 6.793 2.411 10.636 3.737 12.597 3.668 2.022 1.368 9.561 7.425 10.828 8.71 1.394 3.811 3.814 7.181 6.156 10.444 0.326 0.454 0.651 0.907 0.971 1.357 2.333 3.271 4.64 6.746 5 10.162 0.296 2.841-0.697 5.529-3.127 8.458-0.181 0.222-0.359 0.435-0.541 0.652-0.209 0.251-0.422 0.507-0.634 0.768l-0.648 0.798 0.025 0.064c-3.485 5.105-1.22 8.188-0.405 9.042l0.728 0.761 2.904-0.765-0.651-1.838c-0.1-0.279-0.162-0.537-0.189-0.791-0.199-1.658 1.311-3.451 2.909-5.349l0.211-0.251c2.433-2.912 3.839-5.927 4.198-8.99 0.19 0.015 0.376 0.034 0.557 0.056 2.824 0.343 6.692 1.572 9.085 5.472l0.145 0.211c0.219 0.303 0.438 0.607 0.662 0.906 0.694 0.938 1.56 2.041 2.664 3.051 0.376 0.334 0.695 0.632 0.997 0.929 2.877 2.813 4.912 5.989 6.225 9.71 0.044 0.177 0.137 0.53 0.276 0.923 0.314 0.878 0.679 1.476 1.144 1.871 0.474 0.45 2.578 2.261 6.72 3.273 0.076 0.018 0.153 0.039 0.229 0.063-1.41 0.373-4.25 1.393-5.423 3.735-0.53 1.06-0.914 2.801 0.267 5.082 0.336 0.65 0.797 1.332 1.368 2.025 0 0 0.037 0.047 0.107 0.128 0.442 0.513 2.041 2.3 3.8 3.406l0.203 0.109c-0.001 0.001 1.52 0.753 2.326 2.467l0.256 0.545 0.578 0.302c0.908 0.506 8.931 5.031 15.03 10.393 1.463 1.417 2.853 2.924 4.002 4.307-2.394-2.11-5.414-4.43-8.684-6.128l-2.153 2.768c0.049 0.055 4.891 5.569 5.771 12.273 0.031 0.228 0.055 0.443 0.076 0.659l0.053 0.541 0.345 0.419c0.034 0.042 3.371 4.162 4.977 9.806-0.597-1.084-1.267-2.167-1.935-2.987l-3.165-3.889v5.015c-0.01 0.532-0.388 13.693-12.481 15.46l-0.146 0.028c-0.003 0-1.065 0.233-2.745 0.233-0.634 0-1.28-0.033-1.922-0.098-3.362-0.339-8.322-1.739-12.864-6.48-0.261-0.276-0.53-0.569-0.798-0.875l-0.062-0.07c-0.692-0.802-6.345-7.525-9.036-16.147-0.237-1.14-2.285-10.094-8.497-10.954-2.262-0.312-4.716 0.515-7.264 2.456l-0.133 0.111c-0.36 0.335-1.317 1.224-0.837 2.447l0.444 1.131 1.256 0.018c0.051 0 0.107-0.002 0.165-0.007l0.044-0.004c0.408-0.046 0.784-0.22 1.223-0.469l0.133-0.083c0.313-0.211 1.135-0.67 2.042-0.912-1.277 1.143-2.396 3.035-2.669 6.164-0.887-0.737-1.927-1.367-3.025-1.553-0.226-0.037-0.449-0.056-0.668-0.056-0.483 0-1.161 0.096-1.854 0.51 1.783-5.884 5.902-11.906 11.696-12.238l0.892-0.057c0.235-0.016 0.466-0.03 0.697-0.044l0.189-0.011c0.27-0.021 0.487-0.031 0.7-0.031l0.132 0.002c0.312 0.003 0.63 0.025 0.953 0.062 3.042 0.359 7.466 2.404 11.24 10.111 0.331 0.681 0.648 1.379 0.94 2.073 0.679 2.185 3.995 11.91 9.263 12.116 0.186 0.009 0.445 0.001 0.681-0.024l0.241-0.025 0.226-0.09c0.202-0.079 4.936-2.039 4.129-9.452-0.301-2.622-2.245-11.462-14.695-15.8-1.344-0.469-2.711-0.841-4.033-1.201-1.437-0.392-2.795-0.762-4.122-1.243-0.879-0.32-1.779-0.74-2.73-1.186-2.307-1.079-4.694-2.196-7.423-2.196l-0.117 0.001c-0.842 0.01-1.616 0.19-2.298 0.349-0.502 0.117-0.977 0.227-1.396 0.251-0.115 0.007-0.225 0.01-0.332 0.01-1.978 0-3.802-1.147-5.565-2.257-0.853-0.538-1.771-1.032-2.802-1.508-0.84-0.391-1.746-0.766-2.847-1.176l-0.193-0.06c-4.619-1.146-8.032-4.09-11.646-7.206-2.486-2.144-5.057-4.36-8.089-6l-0.133-0.065c-3.737-1.635-7.645-2.688-12.66-3.409-1.006-0.283-1.984-0.487-2.986-0.621-1.555-0.211-2.988-0.229-4.209-0.229l-1.275 0.003c-2.357 0-4.732-0.084-7.88-1.097l-0.092-0.027c-1.567-0.412-8.953-1.378-16.155-1.378-3.432 0-6.385 0.215-8.81 0.639-1.679-13.545 5.197-17.908 12.46-22.518 5.337-3.387 10.853-6.887 11.809-14.131 0.39-0.554 0.782-1.222 1.156-1.876l-2.488-2.399c-0.015 0.009-0.029 0.018-0.043 0.026m1.595-32.349c-0.342 0-0.679 0.008-1.007 0.022l-1.058 0.048-0.464 0.952c-2.457 5.037-2.647 18.647-2.631 32.155l0.002 3.498h1.317c-0.949 5.236-5.209 7.939-10.099 11.043-7.46 4.735-16.745 10.628-13.794 27.966l0.325 1.909 1.875-0.48c2.436-0.624 5.751-0.94 9.855-0.939 7.114 0 13.974 0.945 15.207 1.25 3.611 1.155 6.386 1.252 8.92 1.252l1.275-0.002c1.155 0 2.395 0.015 3.732 0.196 0.87 0.117 1.72 0.296 2.599 0.549l0.242 0.052c4.707 0.669 8.346 1.636 11.784 3.132 2.664 1.453 4.96 3.433 7.391 5.529 3.748 3.231 7.622 6.573 13.015 7.941 0.968 0.363 1.764 0.693 2.5 1.036 0.895 0.413 1.678 0.833 2.399 1.289 2.217 1.394 4.765 2.986 8.009 2.791 0.721-0.042 1.398-0.2 1.994-0.338 0.555-0.13 1.081-0.251 1.535-0.257l0.073-0.001c0.308 0 0.615 0.023 0.923 0.065-8.809 1.677-14.016 12.766-14.428 20.701-0.13 3.301 1.453 3.997 2.408 4.12 0.111 0.014 0.225 0.021 0.342 0.021 1.463 0 2.767-1.192 3.26-1.705 0.748-0.782 1.224-0.804 1.38-0.789h0.002l0.027 0.009c0.545 0.172 1.038 0.278 1.506 0.326 0.744 0.078 1.456 0.009 2.039-0.206 0.28-0.1 0.476-0.22 0.591-0.305l0.415-0.303c0.2-0.109 0.382-0.243 0.546-0.399l0.701-0.513-0.172-0.177c0.443-0.791 0.645-1.901 0.599-3.319-0.006-0.159-0.013-0.291-0.019-0.385 0.356-4.37 2.807-4.712 3.556-4.712l0.11 0.002h1.452c1.076 1.839 1.718 4.053 1.944 5.218l0.048 0.189c2.964 9.581 9.14 16.792 9.834 17.583l0.066 0.073c0.284 0.321 0.566 0.629 0.849 0.927 5.298 5.533 11.128 7.169 15.086 7.568 0.76 0.077 1.528 0.117 2.281 0.117 1.87 0 3.126-0.236 3.469-0.308 9.228-1.378 13.215-8.335 14.704-13.813 0.334 0.673 0.645 1.343 0.916 1.957l0.374 0.855 0.53 0.293c0.618 0.34 1.193 0.505 1.758 0.505 0.806 0 1.527-0.345 2.03-0.971 1.161-1.447 0.789-4.125 0.465-5.592-1.393-5.993-4.597-10.588-5.657-11.989-0.01-0.09-0.022-0.178-0.034-0.267-0.322-2.451-1.079-4.74-1.972-6.734 2.134 1.778 3.823 3.468 4.736 4.422 0.632 0.66 0.991 1.072 0.995 1.077l0.658 0.755 0.988-0.168c0.249-0.043 0.488-0.105 0.71-0.184 1.026-0.376 1.704-1.139 1.918-2.152 0.699-3.299-4.747-9.154-8.055-12.351l-0.06-0.056c-5.858-5.16-13.384-9.556-15.299-10.643-1.246-2.243-3.113-3.315-3.66-3.591-1.175-0.76-2.336-2.006-2.779-2.506l0.611-1.911c0.123-0.247 0.77-0.662 1.13-0.805l0.228-0.091 0.196-0.149c0.992-0.76 4.014-3.072 3.393-5.905-0.569-2.602-3.771-3.395-4.135-3.477-3.466-0.847-5.073-2.382-5.088-2.397l-0.05-0.048c-0.032-0.059-0.095-0.187-0.18-0.423-0.114-0.323-0.183-0.621-0.183-0.624l-0.056-0.194c-1.499-4.289-3.828-7.941-7.123-11.163-0.341-0.336-0.706-0.676-1.109-1.034-0.86-0.788-1.593-1.724-2.193-2.534-0.216-0.288-0.422-0.573-0.624-0.856l-0.037-0.051c-2.485-4.013-6.515-6.464-11.659-7.091-0.66-0.08-1.356-0.125-2.117-0.136l-0.219-0.146c-0.673-3.955-3.088-7.607-5.526-11.021-0.321-0.453-0.649-0.91-0.979-1.37-2.254-3.14-4.585-6.387-5.791-9.831-0.179-0.511-0.348-0.997-6.493-5.909-6.211-4.966-6.578-4.966-7.243-4.966h-0.305l-0.197 0.068h-0.019c-1.475 0-6.217-1.683-11.238-3.464-9.167-3.254-21.723-7.71-30.071-7.71" fill="#fff"/><path d="m260.28 368.39c-0.122 0.044-0.256 0.079-0.408 0.105 0 0-0.377-0.434-1.051-1.138-2.02-2.113-6.726-6.685-12.026-9.437 0.011 0.013 5.242 5.872 6.207 13.227 0.032 0.237 0.058 0.477 0.082 0.717 0 0 4.068 4.94 5.633 11.678 0 0 1.266 5.717-1.651 4.11 0 0-0.048-0.109-0.133-0.305-0.464-1.054-2.068-4.566-3.565-6.404 0 0.019-0.224 15.21-14.006 17.224 0 0-2.116 0.491-5.25 0.173-3.808-0.384-9.117-1.952-13.973-7.021-0.283-0.299-0.566-0.608-0.85-0.932 0 0-0.007-0.005-0.017-0.019-0.383-0.436-6.573-7.564-9.472-16.933 0 0-1.707-8.895-7.011-9.63-1.627-0.225-3.586 0.316-5.938 2.108 0 0-0.566 0.526-0.34 0.506 0.076-0.008 0.242-0.078 0.544-0.248 0 0 2.387-1.644 4.712-1.345 1.056 0.137 2.101 0.673 2.886 1.947-0.295-0.016-4.983-0.131-5.455 6.49 0 0 0.016 0.175 0.025 0.445 0.026 0.811-0.02 2.475-0.824 2.824-0.003 0-2.213-3.085-4.284-3.435-0.985-0.165-1.939 0.287-2.607 1.991-0.067 0.168-0.129 0.351-0.191 0.548 0 0-0.876 2.913-0.187 1.965 0 0 0.327-0.576 0.656-1.447 0 0 1.389-4.027 6.078 0.767 0 0-0.044 0.034-0.146 0.069-0.202 0.076-0.608 0.176-1.251 0.109-0.323-0.033-0.701-0.112-1.148-0.253 0 0-0.144-0.059-0.39-0.083-0.554-0.055-1.628 0.059-2.844 1.328 0 0-1.214 1.264-2.087 1.151-0.524-0.068-0.92-0.63-0.856-2.259 0.393-7.555 5.636-18.709 14.343-19.209 0.288-0.017 0.583-0.037 0.878-0.056 0.298-0.02 0.595-0.038 0.893-0.055 0.297-0.024 0.624-0.039 0.974-0.033 0.353 0.005 0.731 0.029 1.125 0.074 3.442 0.406 8.49 2.634 12.636 11.098 0.344 0.707 0.685 1.455 1.016 2.248 0 0 3.308 10.773 7.656 10.944 0.139 0.006 0.278 0 0.423-0.015 0 0 3.681-1.455 3.011-7.601-0.107-0.94-1.121-9.993-13.509-14.31-2.685-0.935-5.5-1.481-8.176-2.451-3.107-1.129-6.221-3.316-9.641-3.275-1.223 0.016-2.397 0.528-3.613 0.598-2.638 0.159-4.781-1.154-6.95-2.518-0.836-0.528-1.706-0.986-2.597-1.398-0.89-0.414-1.801-0.781-2.724-1.125-8.392-2.083-13.005-9.503-20.153-13.368-3.985-1.744-7.995-2.68-12.317-3.294-1.019-0.293-1.955-0.482-2.852-0.602-4.469-0.606-7.827 0.488-13.672-1.394-2.089-0.549-17.588-2.476-25.998-0.324-4.695-27.579 26.416-23.881 22.6-40.494 0.41-0.512 0.764 0 0 0-0.002-9.831-0.179-27.699 2.449-33.088 13.211-0.598 39.54 12.183 42.747 11.087 0.371-0.131 11.815 8.969 12.063 9.68 1.471 4.203 4.388 7.963 7.001 11.647 2.627 3.681 4.927 7.274 5.32 11.007 0.314 3.008-0.523 6.162-3.528 9.783-0.37 0.454-0.77 0.922-1.162 1.411-3.432 4.441-1.788 6.848-1.123 7.544l0.015-0.005c-0.153-0.422-0.246-0.822-0.287-1.212-0.299-2.494 1.674-4.725 3.53-6.933 2.848-3.41 3.941-6.642 3.867-9.698l0.024 0.015c0.817-0.004 1.634 0.028 2.442 0.126 4.101 0.499 7.973 2.37 10.39 6.31 0.235 0.327 0.47 0.657 0.713 0.979 0.727 0.981 1.501 1.944 2.443 2.806 0.361 0.321 0.708 0.643 1.044 0.975 3.03 2.963 5.243 6.342 6.687 10.476 0 0 0.087 0.388 0.244 0.832 0.158 0.44 0.379 0.928 0.651 1.133 0 0 1.834 1.866 5.955 2.873 0.626 0.153 1.206 0.414 1.741 0.782 1.038 0.715 1.457 1.724 0.76 2.866-0.718 1.173-1.834 2.054-2.965 2.805-0.605 0.401-1.237 0.794-1.565 1.471-0.035 0.072-0.065 0.144-0.09 0.22 0 0-0.007-0.006-0.014-0.02-0.151-0.196-1.211-1.857 3.047-4.752-0.024 0.004-7.328 1.312-4.681 6.421 0.275 0.529 0.656 1.099 1.163 1.713 0 0 0.025 0.031 0.076 0.089 0.344 0.402 1.822 2.074 3.4 3.066 0 0 2.081 0.958 3.195 3.327 0 0 0.034 0.018 0.1 0.055 0.995 0.554 9.15 5.163 15.36 10.634 0 0 10.523 10.169 6.773 11.542" fill="#036"/><path d="m165.18 126.37-10.658 1.8008c-0.84125-0.2075-1.7442-0.38133-2.6992-0.51758-1.19-0.17125-2.4161-0.26445-3.6523-0.2832l-3.7793 0.1875c-0.4825 0.06-0.95899 0.1325-1.4277 0.21875l-24.975 3.791v-0.002l-22.049 3.3496 0.01953 0.0137-7.8457 1.1914 0.0039-0.0254-9.3047 1.4238v-0.006l-7.5293 1.1445-16.236 2.4648 1.1816-6.6562h-0.0039l0.96289-5.4277-14.053 2.1484 0.002-0.01-33.918 5.1953-3.5078 19.748 15.484-7.9902-0.62305 3.4961-10.193 5.9023 8.5684 3.2402-1.4473 8.1328-17.5 12.98 9.627-1.46 10.728 7.96 113.92-16.97 7.81-10.94c3.6118-0.40942 6.7404-1.489 9.3105-3.2266 3.2775-2.2175 5.2502-5.0965 5.8652-8.5527 0.49-2.745 0.0428-5.0891-1.3359-6.9766-0.45125-0.61375-0.99867-1.167-1.6387-1.6582l2.1289-2.8965 8.7598-10.791z" transform="matrix(.8 0 0 -.8 103.8 400.23)" fill="#f60"/><path d="m190.52 46.211s-18.234 16.561-45.186 20.85c-0.2125-0.0875-0.40036-0.14648-0.47656-0.14648-2.4962-0.03625-3.7586 1.812-4.3398 3.0957-0.145 0.31875-0.25499 0.66672-0.3125 1.0117-0.145 0.8725 0.093 1.7799 0.44922 2.5762 0.16125 0.36125 0.36508 0.71219 0.61133 1.0234 0.225 0.2825 0.62766 0.50156 0.81641 0.78906-0.56125-0.85875-0.72961-2.0451-0.47461-3.0801 0.2975-1.2012 1.4087-2.2205 2.9199-2.4668 5.025-0.57 31.065-7.3786 45.992-23.652zm-71.172 15c2.1562 1.1225 2.8203 2.6074 2.8203 2.6074-6.645-3.3688-10.68 0.74219-10.68 0.74219-1.6075 2.215-5.4961 5.6504-5.4961 5.6504 2.5225-0.81875 6.5781-4.7637 6.5781-4.7637 4.135-3.6675 9.4512-0.7168 9.4512-0.7168 0.22294 0.27122 0.43358 0.50916 0.63672 0.72852-0.70822 0.01887-1.4082-0.1543-1.4082-0.1543-3.18-1.2138-5.2774 0.40234-5.2774 0.40234-1.4738 0.9025-1.5918 0.80859-1.5918 0.80859-0.26-0.3275 0.11328-1.1582 0.11328-1.1582-1.09 0.96-1 2.1758-1 2.1758-1.2688 1.3062 0.33593 3.625 0.33593 3.625 0.51877 1.9475 2.2695 1.7461 2.2695 1.7461-1.315-0.6525-0.97461-2.1484-0.97461-2.1484 3.8 3.0862 6.6855 0.22266 6.6855 0.22266 1.9638-1.1875 2.1289-2.332 2.1289-2.332-0.045 0.32375-0.85211 0.92211-1.0996 1.0996-0.7175 0.51375-1.4598 0.7982-2.291 1.0645-0.97751 0.31125-2.0663 0.37141-3.0801 0.12891-0.915-0.21875-1.7343-0.78328-2.4356-1.3945-0.0625-0.055-1.5113-1.468-1.3926-1.543 1.4802-0.9328 2.9219-1.3951 4.2656-1.5723-0.17208 0.21356-0.26825 0.46756-0.22461 0.77539 0.14375 0.97375 1.5262 2.0802 2.5762 1.9102 1.0538-0.1625 1.7943-1.0868 1.6543-2.0605-0.0196-0.13516-0.0579-0.2633-0.10743-0.38477 2.2702 0.57488 3.7422 1.6934 3.7422 1.6934 0.01-0.44448-0.29913-0.99581-0.68164-1.5078-1.2435-2.2561-1.1719-3.4199-1.1719-3.4199-1.8162-2.085-4.3457-2.2246-4.3457-2.2246zm19.99 14.287s1.7617 3.47 4.0312 4.2207c-0.42558 0.65722-1.3236 1.2006-3.207-0.23047 0 0 3.1741 4.0553 5.0293 0.17969 0.69893-0.30289 1.4123-0.95626 2.1133-2.1094 0 0-3.4968 2.7582-7.9668-2.0605zm-59.992 7.914c-7.707 3.871-16.627 8.678-25.455 5.65 6.3788 4.4912 15.246 0.62844 21.709-1.6641-2.6212 3.3612-0.96508 6.8738-0.23633 8.4062 1.565 3.31 4.7739 4.8313 7.9727 6.2813 4.9412 2.2388 11.728 4.4381 13.518 10.203 1.6738 5.41-1.8379 10.455-5.0254 14.576-1.0375 1.34-1.8737 2.989-2.9512 4.3027 3.115-3.7938 6.9291-7.2388 8.8066-11.83 0.54625-1.3375 0.97297-3.0656 1.168-4.498 0.27-1.985-0.46297-4.0709-1.418-5.7422-1.3875-2.4338-3.8862-4.3667-6.25-5.793-1.4088-0.855-2.9112-1.5201-4.4199-2.1738-2.2688-0.98875-4.9492-2.0393-7.0117-3.4355-2.0812-1.4125-3.4394-3.0373-3.5156-5.2773-0.11125-3.3138 1.9244-6.0646 3.1094-9.0059zm80.607 46.006-5.5234 0.9375c-0.88875-0.2375-1.8652-0.43399-2.9102-0.58399-1.6925-0.24125-3.4376-0.31851-5.2363-0.22851-2.0788 0.1075-5.2774 0.69531-5.2774 0.69531l-24.848 3.7695 0.0254 0.0156-0.98047 0.14844 0.004-0.0215-13.447 2.0449 6.2734 4.1367-1.1562 6.4805-3.0371 1.8418-2.8027-1.1719-1.8262-10.883-10.193 1.5469-5.3828 10.986 1.8574-10.473-9.2617 1.4199 0.002-0.0117-12.771 1.9668 0.04297-0.0332-11.084 1.6836 1.2578-7.0801h-0.002l0.88672-5-14.232 2.1738 0.0039-0.0137-29.275 4.4902-2.4863 13.986 12.781-6.5957 2.5234-0.38476-1.373 7.7188-7.1562 4.1445 6.0156 2.2734-1.9082 10.717-11.279 8.3652 33.812-5.1367 15.5-2.3535 12.445-1.8887-0.02344 0.0195 15.428-2.3418 32.398-4.9375-0.004 0.0195 10.502-1.5957 0.56055-3.1562 1.9004-0.16016c0.9575 0.48125 2.0203 0.84328 3.6016 1.2383 1.0038 0.24875 2.1757 0.36523 3.6894 0.36523h0.002c0.65125 0 1.367-0.0195 2.252-0.0644 3.9638-0.20625 7.3141-1.2198 9.9629-3.0098 2.7788-1.88 4.4477-4.2882 4.959-7.1582 0.3825-2.145 0.0643-3.9395-0.95312-5.332-0.68875-0.9375-1.7053-1.7049-3.0391-2.2949l3.2969-4.4863-0.0312 0.0117 5.5176-6.8008zm-40.504 6.7598 2.5606 1.6895-0.61524 3.4668-1.9453-5.1562zm27.371 1.1152c0.98162 0.0354 1.9334 0.20199 2.8906 0.50391 0.0288 0.008 0.0545 0.0185 0.082 0.0273l-4.2461 1.4688c-0.51625-0.0812-1.0434-0.16235-1.5859-0.24609-1.1138-0.17376-1.6606-0.34852-1.9043-0.44727 0.03-0.0687 0.0915-0.14531 0.17774-0.22656 0.23625-0.21875 0.49461-0.38297 0.81836-0.51172 0.43125-0.18125 0.87148-0.31313 1.3027-0.39063 0.505-0.0875 1.0002-0.14617 1.4727-0.16992 0.33562-0.0175 0.66498-0.0196 0.99219-0.008zm-15.07 3.2188c-0.0775 1.4112 0.18078 2.6627 0.76953 3.7402l-1.3359-0.56054 0.5664-3.1797zm-89.801 1.9863 6.6211 1.7734-9.9121 1.5078 5.8633 3.8652-1.2051 6.7676-5.1934 3.1523 4.3125 1.8008-1.1934 6.707-3.502 2.7226-3.8008-2.2812 1.9102-10.746 7.1543-4.1406-6.0117-2.2754 1.4824-8.3223 3.4746-0.53125zm92.264 3.6836c0.19625 0.14625 0.4043 0.28688 0.62305 0.42188l-2.1445 2.8516-3.1348 3.373 0.76563-4.2891 3.8906-2.3574zm-57.553 0.9668 6.9297 2.0762-0.20508 0.41992-6.3652 3.8613-2.873-1.2051 0.87109-4.9004 1.6426-0.25195zm-20.887 0.86718-1.0742 6.0274 9.1465-4.9336 0.67774-0.10352-0.76758 4.3047-5.1953 3.1465 4.3145 1.8047-1.1934 6.709-6.1152 4.752-3.9453-2.5996 1.2031-6.7676 5.1953-3.1504-4.3125-1.8008 1.1934-6.709 0.87305-0.67969zm85.09 0.47071c0.0438 0.006 0.0885 0.0133 0.13477 0.0195 1.0562 0.14 1.9909 0.28812 2.8672 0.45312 0.65 0.12 0.95844 0.27829 1.0859 0.36329-0.0288 0.12125-0.075 0.25476-0.15624 0.32226-0.25125 0.20875-0.57868 0.39844-0.95118 0.55469-0.325 0.13-0.77398 0.23961-1.3027 0.31836-0.6075 0.0913-1.0942 0.14781-1.4492 0.16406-1.375 0.0712-2.7809-0.1068-4.1934-0.5293-0.23125-0.0688-0.44227-0.14093-0.63477-0.21093l4.5996-1.4551zm-36.268 2.5762 1.4199 0.5957-1.2148 6.8398-1.4141 1.0976-0.37109-0.33789-1.1016-6.5684 2.6816-1.627zm11.219 2.9043 1.9258 5.0976-2.5332-1.668 0.60743-3.4297zm-37.691 0.33984 2.4707 1.0352-3.5723 7.291-2.9629 2.7031-1.9961-1.3164 1.2031-6.7676 4.8574-2.9453zm13.855 6.1211 0.04102 0.25391-3.4727 3.1699-1.8125-1.6348 0.52539-1.0703 4.7188-0.71875zm40.936 2.6133-1.6758 0.25-0.71093 3.2383-0.0156 0.002-1.6973-2.877-1.9863 0.29882-1.1484 5.1719 1.6738-0.24805 0.7207-3.2715 0.0176-0.002 1.7656 2.9004 1.9199-0.28516 1.1367-5.1777zm-9.4004 1.3613c-0.16949-0.01-0.3475-0.008-0.5332 0.002-0.21223 0.0118-0.43414 0.0362-0.66211 0.0703-1.825 0.275-3.5005 1.1041-3.9805 3.2441-0.48375 2.1438 0.92641 2.5134 2.7539 2.2422 1.8288-0.27125 3.5101-1.105 3.9863-3.25 0.36463-1.6404-0.37799-2.24-1.5645-2.3086zm-5.2383 0.83204-5.498 0.82421-0.26172 1.1543 1.8887-0.2832-0.9082 4.0039 1.7207-0.2539 0.90625-4.0078 1.8926-0.28321 0.25976-1.1543zm4.1113 0.37109c0.71388 0.001 1.0744 0.43391 0.86328 1.3789-0.24125 1.0862-0.97039 1.6789-1.9004 1.8164-0.92 0.13625-1.4325-0.27047-1.1875-1.3555 0.24125-1.0775 0.97594-1.677 1.8984-1.8144 0.11578-0.0172 0.22419-0.0256 0.32617-0.0254zm-11.598 0.77539c-0.12926 0.003-0.27219 0.0155-0.42969 0.0391l-4.1113 0.61719-1.1875 5.1504 1.7168-0.25391 0.39258-1.7207 1.5703-0.23242c0.4325-0.0662 0.66672 0.0396 0.48047 0.84961-0.0525 0.23875-0.11741 0.54-0.0762 0.75l1.8848-0.2793c-0.15625-0.22875-0.11271-0.54914 0.041-1.5566 0.0837-0.54875-0.11071-0.77078-0.40821-0.83203l0.004-0.0137c0.4875-0.18625 0.93344-0.61453 1.0859-1.3008 0.1739-0.75032-0.0581-1.2344-0.96289-1.2168zm-5.6524 0.82422-5.1211 0.76758-1.1973 5.1426 5.1309-0.76171 0.25781-1.1133-3.4238 0.51172 0.21484-0.93164 3.209-0.47851 0.2461-1.0664-3.209 0.47852 0.2168-0.92969 3.4219-0.51172 0.2539-1.1074zm4.4707 0.48047c0.22189 0.0407 0.30617 0.20687 0.24804 0.46093-0.08 0.35375-0.35273 0.60352-0.77148 0.66602l-1.6465 0.24609 0.25782-1.123 1.6445-0.24805c0.10468-0.0159 0.19361-0.0154 0.26758-0.002zm-13.715 0.90429-1.6992 0.25391-1.209 5.1387 4.8164-0.71484 0.28125-1.1973-3.1152 0.46485 0.92578-3.9453zm-5.8086 0.8711-1.6934 0.2539-1.2188 5.1309 4.8008-0.71289 0.2793-1.1953-3.1016 0.46094 0.93359-3.9375zm-3.0352 0.45508-1.6895 0.2539-0.72656 3.0332c-0.19875 0.83501-0.64812 1.1597-1.4219 1.2734-0.775 0.11625-1.0926-0.0933-0.89258-0.92578l0.72461-3.0352-1.6855 0.25391-0.79688 3.3125c-0.34125 1.4162 0.5775 1.8124 2.375 1.5449 1.8-0.2675 2.986-0.97703 3.3223-2.3945l0.79102-3.3164zm-6.5684 0.98632-4.8145 0.72071-1.2441 5.1191 1.6836-0.25196 0.48242-1.9883 2.918-0.43554 0.26563-1.1055-2.916 0.4375 0.21289-0.88282 3.1367-0.46874 0.27539-1.1445zm-9.0312 1.3516-5.0312 0.75586-1.2598 5.1074 5.041-0.75 0.26758-1.1055-3.3613 0.50195 0.22852-0.92383 3.1504-0.46875 0.25977-1.0605-3.1504 0.4707 0.22656-0.92383 3.3594-0.50195 0.26953-1.1016zm-5.9141 0.88671-5.3457 0.80274-0.2832 1.1406 1.8359-0.27539-0.98438 3.9629 1.6699-0.24804 0.98437-3.9668 1.8398-0.27148 0.2832-1.1445zm-7.291 1.0938-2.0332 0.30468-3.4492 5.4199 1.7852-0.26367 0.50781-0.875 2.1875-0.32617 0.0918 0.78516 1.7891-0.26563-0.87891-4.7793zm-3.9961 0.59765-5.3125 0.79688-0.28906 1.1387 1.8262-0.27149-1 3.9512 1.6602-0.24805 1-3.9531 1.8281-0.27343 0.28711-1.1406zm2.6543 0.83789 0.21094 1.8242-1.4023 0.20898 1.1777-2.0312 0.01367-0.002zm-10.469 0.26758c-0.34107-0.007-0.73977 0.0266-1.1895 0.0937-2.175 0.3275-2.819 1.332-2.9902 2.002-0.19375 0.75375 0.06758 1.2216 1.0488 1.2266l1.5898 0.01c0.5525 0.007 0.73742 0.0686 0.66992 0.33985-0.11125 0.43375-0.58906 0.60031-1.0078 0.66406-0.86125 0.1275-1.008-0.0854-0.94922-0.46289l-1.9629 0.29297c-0.26625 1.4025 0.87164 1.5293 2.5566 1.2793 0.6825-0.10125 2.875-0.44172 3.3125-2.168 0.22875-0.9-0.23148-1.2016-1.1152-1.2266-0.465-0.0138-1.6886-0.0134-2.0898-0.0234-0.23625-0.006-0.32891-0.0884-0.28516-0.25586 0.08625-0.33625 0.43203-0.54515 0.98828-0.6289 0.75625-0.1125 0.96703 0.0872 0.92578 0.42969l1.8789-0.28125c0.15188-0.89063-0.35764-1.2703-1.3809-1.291zm-10.607 1.6582-1.6465 0.2461-1.3203 5.0742 4.6641-0.69336 0.30469-1.1816-3.0137 0.44726 1.0117-3.8926zm-4.4453 0.66602-2.0059 0.30078-3.4648 5.3848 1.7578-0.26172 0.51172-0.86524 2.1543-0.32031 0.08203 0.7793 1.7637-0.26172-0.79883-4.7559zm-6.5312 0.91016c-0.31613-0.0107-0.66891 0.0202-1.043 0.0762-2.1275 0.3175-3.3423 1.452-3.791 3.1445-0.46375 1.7438 0.29484 2.5385 2.3711 2.2285 2.325-0.34375 3.1785-1.4466 3.666-2.5703l-1.8145 0.26953c-0.265 0.60625-0.80672 1.054-1.543 1.1641-1.06 0.15749-1.1724-0.51336-0.95117-1.3496 0.22-0.8375 0.74703-1.6034 1.7695-1.7559 0.93-0.13875 1.0066 0.435 1.0078 0.78125l1.8242-0.27149c0.07781-1.2722-0.5477-1.6846-1.4961-1.7168zm5.1914 0.51562 0.18164 1.8164-1.3789 0.20507 1.1836-2.0176 0.01367-0.004z" transform="matrix(.8 0 0 -.8 103.8 400.23)" fill="#fff"/><path d="m147.63 131.12c-0.41633 0.002-0.83726 0.0139-1.2598 0.0351-3.37 0.175-6.2577 1.0431-8.6602 2.6094-2.4038 1.565-3.8094 3.5041-4.2207 5.8066-0.3025 1.7162-0.0843 3.1276 0.6582 4.2363 0.6125 0.91625 1.6738 1.6411 3.1738 2.1836l-1.8887 2.5137 5.3184-1.6836c0.1575 0.0263 0.30289 0.0562 0.46289 0.0762 1.0388 0.13875 2.023 0.29375 2.9492 0.46875 0.88 0.16 1.5261 0.42742 1.9336 0.79492 0.4075 0.37 0.56234 0.82469 0.46484 1.3672-0.10375 0.58625-0.34601 1.0412-0.72851 1.3574-0.38 0.315-0.84281 0.58555-1.3828 0.81055-0.44125 0.1775-0.99657 0.31797-1.6641 0.41797-0.66625 0.0987-1.203 0.15969-1.6055 0.17969-1.5662 0.08-3.1433-0.11696-4.7383-0.59571-1.7138-0.5125-2.5605-1.1465-2.5605-1.1465l-4.5391 4.8848 1.6934-0.14257c0.935 0.51999 1.9293 0.88906 3.6543 1.3203 1.4712 0.36625 3.3412 0.36461 5.4688 0.25586 3.68-0.1925 6.7288-1.1038 9.1426-2.7363 2.415-1.6338 3.8377-3.6646 4.2715-6.0996 0.30375-1.7075 0.0822-3.0706-0.66406-4.0918-0.7475-1.0175-2.0498-1.7886-3.9023-2.3086-0.15375-0.04-0.30188-0.0706-0.45313-0.10938l1.541-2.0957-4.3945 1.5215c-0.6425-0.10124-1.2994-0.20484-1.9844-0.30859-1.3825-0.215-2.3048-0.48414-2.7598-0.80664-0.45249-0.32125-0.62476-0.80844-0.50976-1.4609 0.08-0.43375 0.30891-0.8307 0.69141-1.1894 0.38375-0.355 0.81351-0.62836 1.291-0.81836 0.54125-0.22625 1.0943-0.39023 1.6543-0.49023 0.55875-0.0987 1.1135-0.16461 1.666-0.19336 1.565-0.08 3.0401 0.12086 4.4551 0.56836 1.14 0.36375 1.6133 0.61523 1.6133 0.61523l0.0391-0.0488-0.0176 0.0352 4.1602-5.125-1.6484 0.27734c-0.89875-0.2575-1.9147-0.47226-3.0547-0.63476-1.1962-0.17157-2.417-0.25475-3.666-0.25zm-12.506 1.6406-6.9902 1.0625-0.002 0.0176-0.57813 0.0859 0.006-0.0156-6.9902 1.0606 3.2246 2.127-1.8359 10.305-4.4941-11.916 0.006-0.0273-4.3145 0.6543 0.004-0.0176-6.9902 1.0625 3.6465 2.4043-1.4688 8.25-2.9883 1.8105 2.4805 1.0371-1.5508 8.7266-2.9727 2.3125-1.7969-1.6211-1.3789-8.207 2.9453-1.7852-3.4883-1.459-1.7129-10.193-7.7812 1.1797-5.4688 11.164-4.3848 2.6582 2.5566 1.0684-4.4629 9.1113-3.3984 3.1016 12.303-1.8691-2.4961-2.252 1.4336-2.9277 7.1309-1.082 0.45117 2.6934-3.3965 3.0957 13.619-2.0684-0.0137-0.0156 1.8438-0.2793-0.004 0.0156 7.1172-1.0781 0.004-0.0176 3.8242-0.58008-3.3301-2.1953 1.8262-10.268 4.4961 11.914-0.0215 0.11524 7.1191-1.0801 2.0098-11.307 2.9902-1.8125-2.4805-1.0391 1.5371-8.6367 4.2168-3.2832zm-82.543 0.7793-14.451 2.209 0.0039-0.0156-11.215 1.7031-0.0078 0.0293-14.457 2.209-0.81836 4.6367h-0.0059l-0.88867 4.9902 10.111-5.2168 5.0176-0.76758-1.9023 10.682-4.8555 2.8164 4.082 1.541-2.2539 12.672-6.5703 4.8711 22.938-3.4844-5.1523-3.0898 2.2402-12.584 4.8555-2.8125-4.082-1.5449 1.9199-10.781 4.9551-0.75977 8.8223 2.3652 0.88867-4.9902h-0.002l0.82812-4.6777zm30.93 7.0586-9.1719 1.4043 0.0039-0.0117-7.1172 1.0801-0.0039 0.0215-9.1738 1.4043-0.55859 3.1445h-0.002l-0.60352 3.3828 6.4453-3.4766 3.1875-0.48633-1.293 7.25-3.0996 1.877 2.5762 1.0781-1.5312 8.5938-4.1992 3.2676 14.557-2.2129-3.2383-2.1328 1.5195-8.5352 3.0977-1.8789-2.5723-1.0781 1.3008-7.3164 3.1465-0.48242 5.5684 1.668 0.60156-3.3848 0.56055-3.1758zm-25.889 3.9316-14.557 2.2109 3.2383 2.1367-1.5176 8.5332-3.0996 1.8809 2.5723 1.0762-1.5293 8.5957-4.1992 3.2656 14.559-2.209-3.2422-2.1367 1.5195-8.5352 3.0996-1.8789-2.5742-1.0762 1.5312-8.5996 4.1992-3.2637zm34.01 4.0274 1.0762 6.4062-4.5566 0.69336 3.4805-7.0996z" transform="matrix(.8 0 0 -.8 103.8 400.23)" fill="#036"/></g></g></svg>